# xmcd CD database file
#
# Track frame offsets:
#	150
#	13395
#	31105
#	62880
#	88037
#	122807
#	151704
#	170797
#	201565
#	219416
#	245915
#	270532
#	299060
#	314795
#
# Disc length: 4523 seconds
#
# Revision: 0
# Processed by: cddbd v1.5.2PL0 Copyright (c) Steve Scherf et al.
# Submitted via: CDex 1.51
#
DISCID=e011a90e
DTITLE=D&S Records - 3 Is A Magic Number
DYEAR=2007
DGENRE=Jazz
TTITLE0=I Get A Kick Out Of You - Benny Carter
TTITLE1=Time After Time - J.J. Johnson
TTITLE2=Senor Blues - Horace Silver
TTITLE3=Swingin' Scotch - Coleman Hawkins
TTITLE4=Good Queen Bess - Doc Cheatam and Shorty Baker
TTITLE5=Somethin' Special - Sonny Clark
TTITLE6=Blue Soul - Blue Mitchell
TTITLE7=Funk In Deep Freeze - Hank Mobley
TTITLE8=Stella By Starlight - Chet Baker
TTITLE9=All The Things You Are - Paul Desmond and Gerry Mulligan
TTITLE10=I Didn't Know What Time It Was - Benny Golson
TTITLE11=The Touch Of Your Lips - Ben Webster and Oscar Peterson
TTITLE12=On The Sunny Side Of The Street - Lester Young and Oscar Peterson
TTITLE13=It Never Entered My Mind - Miles Davis
EXTD=YEAR: 2007
EXTT0=
EXTT1=
EXTT2=
EXTT3=
EXTT4=
EXTT5=
EXTT6=
EXTT7=
EXTT8=
EXTT9=
EXTT10=
EXTT11=
EXTT12=
EXTT13=
PLAYORDER=
